<svg width="994" height="753" viewBox="0 0 994 753" fill="none" xmlns="http://www.w3.org/2000/svg">
<path d="M673.45 58.5162C711.317 86.1078 735.842 126.468 767.525 160.278H767.523C830.26 227.237 938.291 206.119 978.329 296.409C995.069 334.156 996.154 376.435 991.87 417.118C981.341 518.837 934.576 622.568 843.873 679.183C779.122 719.611 724.89 740.141 647.5 747.457C552.991 756.404 432.427 751.051 337.517 747.457C283.98 745.421 229.387 741.119 180.208 721.113C140.925 705.032 106.888 679.76 75.2187 652.771C48.3081 629.817 22.0396 604.464 8.99827 572.599C-10.3409 525.376 3.18534 470.342 33.4374 428.44C63.6925 386.538 108.716 356 155.467 330.726C184.464 315.008 215.046 300.576 238.315 277.957C265.84 251.184 280.595 215.446 299.379 182.683C335.089 120.411 389.268 65.4171 458.818 38.1353C528.367 10.8519 613.97 15.087 673.45 58.5162Z" fill="#101D2C" fill-opacity="0.04"/>
<path d="M79.634 248.923C92.0624 271.972 118.44 281.867 118.44 281.867C118.44 281.867 124.667 254.391 112.239 231.342C99.8103 208.293 73.4327 198.399 73.4327 198.399C73.4327 198.399 67.2056 225.874 79.634 248.923Z" fill="#101D2C"/>
<path d="M88.1765 241.34C110.615 254.84 119.257 281.654 119.257 281.654C119.257 281.654 91.5186 286.581 69.0802 273.081C46.6417 259.581 38 232.767 38 232.767C38 232.767 65.7381 227.84 88.1765 241.34Z" fill="#B28451"/>
<path d="M799 623.71C799 648.011 741.245 700.71 670 700.71C598.755 700.71 541 648.011 541 623.71C541 599.41 598.755 612.71 670 612.71C741.245 612.71 799 599.41 799 623.71Z" fill="#3F3D56"/>
<path opacity="0.1" d="M799 623.71C799 648.011 741.245 700.71 670 700.71C598.755 700.71 541 648.011 541 623.71C541 599.41 598.755 612.71 670 612.71C741.245 612.71 799 599.41 799 623.71Z" fill="black"/>
<path d="M670 667.71C741.245 667.71 799 648.011 799 623.71C799 599.41 741.245 579.71 670 579.71C598.755 579.71 541 599.41 541 623.71C541 648.011 598.755 667.71 670 667.71Z" fill="#3F3D56"/>
<path d="M524 301.71H114V535.71H524V301.71Z" fill="#C69963" fill-opacity="0.29"/>
<path d="M715.5 77.7102C737.315 77.7102 755 61.1447 755 40.7102C755 20.2757 737.315 3.71021 715.5 3.71021C693.685 3.71021 676 20.2757 676 40.7102C676 61.1447 693.685 77.7102 715.5 77.7102Z" fill="#2F2E41"/>
<path d="M600.5 271.21L590.5 285.21C590.5 285.21 542.5 295.21 560.5 310.21C578.5 325.21 604.5 296.21 604.5 296.21L618.5 278.21L600.5 271.21Z" fill="#FFB8B8"/>
<path d="M652.5 112.21C652.5 112.21 639.5 112.21 636.5 130.21C633.5 148.21 630.5 208.21 630.5 208.21C630.5 208.21 588.5 263.21 595.5 270.21C602.5 277.21 610.5 290.21 615.5 288.21C620.5 286.21 663.5 227.21 663.5 227.21L652.5 112.21Z" fill="#C69963"/>
<path opacity="0.1" d="M631.787 208L632.184 208.303L632.279 208.18L632.286 208.025L631.787 208ZM631.787 208C632.184 208.303 632.184 208.304 632.184 208.304L632.183 208.306L632.177 208.313L632.154 208.343L632.065 208.461C631.986 208.565 631.869 208.719 631.716 208.921C631.41 209.325 630.963 209.918 630.396 210.676C629.263 212.192 627.651 214.366 625.738 216.997C621.913 222.259 616.886 229.346 612.08 236.65C607.27 243.957 602.691 251.466 599.753 257.576C598.283 260.634 597.236 263.316 596.769 265.434C596.536 266.493 596.454 267.386 596.524 268.102C596.594 268.815 596.81 269.316 597.141 269.646C598.908 271.414 600.734 273.555 602.546 275.727C602.883 276.131 603.221 276.537 603.557 276.941C605.031 278.715 606.49 280.47 607.908 282.04C609.653 283.971 611.306 285.589 612.815 286.6C614.34 287.622 615.589 287.941 616.601 287.536C616.818 287.449 617.218 287.163 617.812 286.617C618.386 286.089 619.094 285.364 619.916 284.467C621.561 282.673 623.644 280.213 626.009 277.309C630.738 271.504 636.577 263.947 642.264 256.448C647.949 248.95 653.479 241.514 657.588 235.953C659.642 233.172 661.341 230.86 662.526 229.243C663.119 228.435 663.583 227.8 663.899 227.368L664.26 226.875L664.271 226.859L653.335 112.527C653.314 112.529 653.293 112.531 653.271 112.533C652.927 112.566 652.428 112.634 651.817 112.769C650.595 113.041 648.931 113.585 647.176 114.675C643.682 116.843 639.758 121.213 638.28 130.082C636.785 139.052 635.286 158.524 634.161 175.783C633.599 184.405 633.13 192.466 632.802 198.371C632.638 201.324 632.509 203.738 632.421 205.413C632.377 206.251 632.343 206.904 632.321 207.347L632.295 207.853L632.289 207.982L632.287 208.014L632.286 208.022L632.286 208.024C632.286 208.025 632.286 208.025 631.787 208Z" fill="#B28451" fill-opacity="0.85" stroke="black"/>
<path d="M692.5 61.2102C692.5 61.2102 691.5 100.21 679.5 102.21C667.5 104.21 671.5 117.21 671.5 117.21C671.5 117.21 710.5 140.21 736.5 117.21L741.5 105.21C741.5 105.21 723.5 92.2102 731.5 74.2102L692.5 61.2102Z" fill="#FFB8B8"/>
<path d="M625.5 301.21C625.5 301.21 566.5 411.21 588.5 445.21C610.5 479.21 643.5 549.21 648.5 549.21C653.5 549.21 681.5 535.21 679.5 526.21C677.5 517.21 647.5 450.21 639.5 444.21C631.5 438.21 635.5 422.21 636.5 421.21C637.5 420.21 670.5 367.21 670.5 367.21C670.5 367.21 669.5 451.21 673.5 464.21C677.5 477.21 672.5 570.21 677.5 574.21C682.5 578.21 705.5 585.21 709.5 579.21C713.5 573.21 725.5 482.21 717.5 461.21L732.5 317.21L625.5 301.21Z" fill="#101D2C"/>
<path d="M679.5 568.21L654.5 614.21C654.5 614.21 618.5 640.21 643.5 644.21C668.5 648.21 683.5 638.21 683.5 638.21L705.5 622.21V576.21L679.5 568.21Z" fill="#272630"/>
<path d="M645.5 542.21L658.5 573.21C658.5 573.21 663.5 586.21 658.5 589.21C653.5 592.21 639.5 610.21 648.5 612.21C650.311 612.565 652.15 612.748 653.995 612.756C661.49 612.883 668.932 611.491 675.875 608.666C682.817 605.841 689.116 601.64 694.393 596.317L702.5 588.21C702.5 588.21 674.73 524.262 675.115 524.736C675.5 525.21 645.5 542.21 645.5 542.21Z" fill="#272630"/>
<path d="M717.5 85.2102C736.278 85.2102 751.5 69.9879 751.5 51.2102C751.5 32.4325 736.278 17.2102 717.5 17.2102C698.722 17.2102 683.5 32.4325 683.5 51.2102C683.5 69.9879 698.722 85.2102 717.5 85.2102Z" fill="#FFB8B8"/>
<path d="M737 98.7103L726.5 109.21C726.5 109.21 694.5 121.21 679.5 109.21C679.5 109.21 685 97.7103 685 98.7103C685 99.7103 641.5 106.21 637.5 124.21C633.5 142.21 640.5 173.21 640.5 173.21C640.5 173.21 612.5 305.21 623.5 308.21C634.5 311.21 737.5 336.21 736.5 317.21C735.5 298.21 744.5 220.21 744.5 220.21L779.5 153.21C779.5 153.21 774.5 131.21 762.5 124.21C750.5 117.21 737 98.7103 737 98.7103Z" fill="#C69963"/>
<path d="M692.5 294.21L679.5 302.21C679.5 302.21 629.5 336.21 655.5 342.21C681.5 348.21 696.5 318.21 696.5 318.21L706.5 306.21L692.5 294.21Z" fill="#FFB8B8"/>
<path opacity="0.1" d="M766.5 147.21L775.5 156.21C775.5 156.21 781.5 240.21 769.5 257.21C757.5 274.21 702.5 320.21 699.5 317.21C696.5 314.21 677.5 299.21 681.5 297.21C685.5 295.21 738.683 239.641 738.683 239.641L734.5 162.21L766.5 147.21Z" fill="black"/>
<path d="M770.5 144.21L779.5 153.21C779.5 153.21 785.5 237.21 773.5 254.21C761.5 271.21 706.5 317.21 703.5 314.21C700.5 311.21 681.5 296.21 685.5 294.21C689.5 292.21 742.683 236.641 742.683 236.641L738.5 159.21L770.5 144.21Z" fill="#C69963"/>
<path d="M703.438 2.91536C703.438 2.91536 691.881 -1.28738 676.121 7.64342L684.526 9.74479C684.526 9.74479 671.918 10.7955 670.342 27.6064H676.121C676.121 27.6064 672.443 42.3159 676.121 46.5187L678.485 42.0533L685.314 55.7121L686.89 48.8827L690.042 49.9334L692.143 38.9012C692.143 38.9012 697.397 46.7813 701.6 47.3067V40.4772C701.6 40.4772 713.157 53.6108 716.834 53.0854L711.581 45.7307L718.936 47.3067L715.784 42.0533L734.696 47.3067L730.493 42.0533L743.627 46.256L749.931 48.8827C749.931 48.8827 758.862 28.3944 746.254 14.2102C733.645 0.0259562 715.258 -3.12606 703.438 2.91536Z" fill="#2F2E41"/>
<g filter="url(#filter0_d)">
<path d="M373.098 428.793C372.258 429.322 371.389 429.813 370.491 430.266C363.186 433.94 354.721 434.567 346.955 432.008C339.189 429.449 332.755 423.914 329.064 416.617L322.412 403.426L326.877 401.175L333.529 414.366C335.056 417.398 337.166 420.099 339.737 422.316C342.309 424.532 345.292 426.22 348.515 427.284C351.739 428.347 355.141 428.764 358.527 428.512C361.912 428.26 365.215 427.344 368.246 425.815C371.277 424.287 373.977 422.176 376.192 419.603C378.407 417.03 380.093 414.047 381.155 410.822C382.216 407.597 382.632 404.195 382.378 400.81C382.125 397.425 381.206 394.123 379.676 391.092L351.739 335.699C350.211 332.669 348.101 329.97 345.53 327.755C342.959 325.54 339.976 323.854 336.753 322.792C333.53 321.73 330.129 321.313 326.745 321.566C323.361 321.818 320.059 322.734 317.029 324.262C313.999 325.791 311.3 327.901 309.085 330.472C306.871 333.043 305.184 336.026 304.123 339.249C303.061 342.472 302.644 345.873 302.896 349.257C303.148 352.641 304.065 355.943 305.593 358.973L315.484 378.585L311.019 380.836L301.128 361.224C297.448 353.92 296.819 345.454 299.379 337.687C301.94 329.92 307.48 323.488 314.782 319.806C322.085 316.123 330.55 315.492 338.318 318.05C346.086 320.608 352.52 326.147 356.204 333.448L384.141 388.841C387.591 395.683 388.371 403.563 386.33 410.948C384.288 418.333 379.572 424.694 373.098 428.793Z" fill="#2F2E41"/>
</g>
<g filter="url(#filter1_d)">
<path d="M375.8 497.165C374.972 497.687 374.113 498.172 373.223 498.622C365.917 502.296 357.453 502.922 349.687 500.363C341.921 497.804 335.487 492.269 331.796 484.973L303.86 429.579C300.177 422.275 299.546 413.808 302.105 406.039C304.665 398.27 310.207 391.836 317.51 388.153C324.814 384.47 333.281 383.839 341.05 386.398C348.819 388.958 355.253 394.5 358.936 401.803L366.275 416.355L361.81 418.606L354.471 404.054C352.943 401.024 350.833 398.325 348.262 396.11C345.69 393.896 342.708 392.209 339.485 391.147C336.262 390.085 332.861 389.669 329.477 389.921C326.093 390.173 322.791 391.09 319.761 392.618C316.731 394.146 314.032 396.256 311.817 398.827C309.603 401.399 307.916 404.381 306.854 407.604C305.792 410.827 305.376 414.228 305.628 417.612C305.88 420.996 306.797 424.298 308.325 427.328L336.261 482.721C337.788 485.753 339.898 488.455 342.469 490.671C345.04 492.888 348.023 494.576 351.247 495.639C354.471 496.702 357.873 497.12 361.259 496.868C364.644 496.616 367.947 495.699 370.978 494.171C374.009 492.642 376.709 490.531 378.924 487.958C381.139 485.386 382.825 482.402 383.887 479.177C384.948 475.953 385.364 472.551 385.11 469.165C384.856 465.78 383.938 462.478 382.408 459.448L372.792 440.381L377.257 438.13L386.873 457.197C390.315 464.045 391.089 471.929 389.042 479.316C386.996 486.702 382.276 493.064 375.8 497.165Z" fill="#2F2E41"/>
</g>
<g filter="url(#filter2_i)">
<path d="M575 537.71H113V280.71H575V537.71ZM115 535.71H573V282.71H115V535.71Z" fill="#2F2E41"/>
</g>
<path d="M599.088 649.132C598.172 683.302 592.448 717.171 582.084 749.744C581.854 750.499 581.599 751.244 581.351 752H517.9C517.967 751.322 518.036 750.566 518.103 749.744C522.333 701.107 498.164 408.622 469 358C471.555 362.106 604.007 494.593 599.088 649.132Z" fill="#B28451"/>
<path d="M594.327 749.744C593.796 750.5 593.244 751.256 592.679 752H545.077C545.438 751.357 545.856 750.601 546.341 749.744C554.204 735.552 577.479 693.12 599.083 649.133C622.291 601.861 643.602 552.798 641.807 535.04C642.363 539.043 658.43 661.137 594.327 749.744Z" fill="#B28451"/>
<g filter="url(#filter3_d)">
<path d="M537.766 186.64H271.234C268.521 186.637 265.919 185.558 264.001 183.639C262.082 181.721 261.003 179.12 261 176.406V47.2338C261.003 44.5205 262.082 41.9193 264.001 40.0008C265.919 38.0822 268.521 37.0031 271.234 37H537.766C540.479 37.0031 543.081 38.0822 544.999 40.0008C546.918 41.9193 547.997 44.5205 548 47.2338V176.406C547.997 179.12 546.918 181.721 544.999 183.639C543.081 185.558 540.479 186.637 537.766 186.64Z" fill="#101D2C"/>
</g>
<path d="M504.038 111.365H304.456V112.275H504.038V111.365Z" fill="#F0F0F0"/>
<path d="M504.038 129.559H304.456V130.468H504.038V129.559Z" fill="#F0F0F0"/>
<path d="M504.038 74.9788H304.456V75.8884H504.038V74.9788Z" fill="#F0F0F0"/>
<path d="M504.038 93.1719H304.456V94.0815H504.038V93.1719Z" fill="#F0F0F0"/>
<path d="M305.66 114.842C314.162 126.325 328.86 132.222 342.918 129.458C349.996 128.065 356.531 124.689 361.763 119.723C366.484 115.207 369.731 109.451 373.916 104.481C375.942 102.073 378.209 99.8199 380.94 98.2189C384.062 96.4092 387.662 95.5956 391.259 95.887C399.305 96.4711 406.215 101.272 412.7 105.626C419.002 109.857 425.633 113.97 433.406 114.492C441.582 115.042 449.533 112.045 456.794 108.596C464.224 105.067 471.468 100.866 479.551 98.9873C486.136 97.4566 493.628 97.7461 499.538 101.311C500.959 102.172 502.255 103.225 503.389 104.44C503.992 105.081 504.955 104.115 504.354 103.475C499.787 98.618 493.066 96.6747 486.542 96.7636C478.929 96.8674 471.786 99.786 465.025 103.042C457.511 106.661 450.131 110.82 441.873 112.5C437.778 113.402 433.537 113.415 429.437 112.537C425.675 111.665 422.185 109.956 418.885 107.984C412.249 104.018 406.244 98.9987 398.924 96.2714C392.196 93.765 384.842 93.7244 378.811 97.9692C373.619 101.624 370.161 107.147 366.432 112.16C364.505 114.862 362.306 117.36 359.871 119.614C357.073 122.089 353.912 124.12 350.498 125.636C343.748 128.673 336.222 129.544 328.956 128.131C321.912 126.701 315.438 123.247 310.33 118.191C309.066 116.935 307.898 115.586 306.838 114.154C306.321 113.456 305.137 114.135 305.66 114.842H305.66Z" fill="#C69963"/>
<path d="M390.061 100.122C392.573 100.122 394.61 98.0855 394.61 95.5735C394.61 93.0615 392.573 91.0251 390.061 91.0251C387.549 91.0251 385.513 93.0615 385.513 95.5735C385.513 98.0855 387.549 100.122 390.061 100.122Z" fill="#B28451"/>
<path d="M485.577 101.487C488.088 101.487 490.125 99.4502 490.125 96.9382C490.125 94.4263 488.088 92.3899 485.577 92.3899C483.065 92.3899 481.028 94.4263 481.028 96.9382C481.028 99.4502 483.065 101.487 485.577 101.487Z" fill="#B28451"/>
<path d="M338.665 133.78C341.177 133.78 343.214 131.743 343.214 129.231C343.214 126.719 341.177 124.683 338.665 124.683C336.153 124.683 334.117 126.719 334.117 129.231C334.117 131.743 336.153 133.78 338.665 133.78Z" fill="#B28451"/>
<defs>
<filter id="filter0_d" x="294.828" y="315.502" width="95.616" height="123.057" filterUnits="userSpaceOnUse" color-interpolation-filters="sRGB">
<feFlood flood-opacity="0" result="BackgroundImageFix"/>
<feColorMatrix in="SourceAlpha" type="matrix" values="0 0 0 0 0 0 0 0 0 0 0 0 0 0 0 0 0 0 127 0"/>
<feOffset dy="2"/>
<feGaussianBlur stdDeviation="1.5"/>
<feColorMatrix type="matrix" values="0 0 0 0 0.184314 0 0 0 0 0.180392 0 0 0 0 0.254902 0 0 0 1 0"/>
<feBlend mode="normal" in2="BackgroundImageFix" result="effect1_dropShadow"/>
<feBlend mode="normal" in="SourceGraphic" in2="effect1_dropShadow" result="shape"/>
</filter>
<filter id="filter1_d" x="297.556" y="383.849" width="95.6075" height="123.065" filterUnits="userSpaceOnUse" color-interpolation-filters="sRGB">
<feFlood flood-opacity="0" result="BackgroundImageFix"/>
<feColorMatrix in="SourceAlpha" type="matrix" values="0 0 0 0 0 0 0 0 0 0 0 0 0 0 0 0 0 0 127 0"/>
<feOffset dy="2"/>
<feGaussianBlur stdDeviation="1.5"/>
<feColorMatrix type="matrix" values="0 0 0 0 0.184314 0 0 0 0 0.180392 0 0 0 0 0.254902 0 0 0 1 0"/>
<feBlend mode="normal" in2="BackgroundImageFix" result="effect1_dropShadow"/>
<feBlend mode="normal" in="SourceGraphic" in2="effect1_dropShadow" result="shape"/>
</filter>
<filter id="filter2_i" x="113" y="280.71" width="465" height="265" filterUnits="userSpaceOnUse" color-interpolation-filters="sRGB">
<feFlood flood-opacity="0" result="BackgroundImageFix"/>
<feBlend mode="normal" in="SourceGraphic" in2="BackgroundImageFix" result="shape"/>
<feColorMatrix in="SourceAlpha" type="matrix" values="0 0 0 0 0 0 0 0 0 0 0 0 0 0 0 0 0 0 127 0" result="hardAlpha"/>
<feOffset dx="3" dy="8"/>
<feGaussianBlur stdDeviation="4.5"/>
<feComposite in2="hardAlpha" operator="arithmetic" k2="-1" k3="1"/>
<feColorMatrix type="matrix" values="0 0 0 0 0 0 0 0 0 0 0 0 0 0 0 0 0 0 0.45 0"/>
<feBlend mode="normal" in2="shape" result="effect1_innerShadow"/>
</filter>
<filter id="filter3_d" x="254" y="30" width="309" height="171.64" filterUnits="userSpaceOnUse" color-interpolation-filters="sRGB">
<feFlood flood-opacity="0" result="BackgroundImageFix"/>
<feColorMatrix in="SourceAlpha" type="matrix" values="0 0 0 0 0 0 0 0 0 0 0 0 0 0 0 0 0 0 127 0"/>
<feOffset dx="4" dy="4"/>
<feGaussianBlur stdDeviation="5.5"/>
<feColorMatrix type="matrix" values="0 0 0 0 0.776471 0 0 0 0 0.6 0 0 0 0 0.388235 0 0 0 0.79 0"/>
<feBlend mode="normal" in2="BackgroundImageFix" result="effect1_dropShadow"/>
<feBlend mode="normal" in="SourceGraphic" in2="effect1_dropShadow" result="shape"/>
</filter>
</defs>
</svg>
